<svg width="154" height="150" viewBox="0 0 154 150" fill="none" xmlns="http://www.w3.org/2000/svg">
    <path d="M26 149H56V144H62V139H66V128H62V118H56V108H51V98H46V93H41V83H36V78H21V83H16V87H11V52H16V42H21V36.5H26V31H36V26H46.5V21H57V17H98V22H108V27H118V32H128V37H133V42H138V52H143V88H138V83H133V77.5H118V83H112.5V93H107V98H102V108H97V118H92V129H88V139H93V144H98V149H128V143.5H133V133H138V123H143V113H148V103H153V63H148V42H143V37H138V27H133V22H128V17H117V11H112V6H97V1H57V6H42V11H36V17H26V22H21V27H16V37H11V42H6V63H1V103H6V113H11V123H16V133H21V144H26V149Z" fill="white" stroke="black"/>
</svg>